HIERARCHY
ROOT root
{
	OFFSET 0.000000 0.000000 0.000000
	CHANNELS 6 Xposition Yposition Zposition Zrotation Yrotation Xrotation
	JOINT lhip
	{
		OFFSET 0.058581 -0.082280 -0.017664
		CHANNELS 3 Zrotation Yrotation Xrotation
		JOINT lknee
		{
			OFFSET 0.043451 -0.386469 0.008037
			CHANNELS 3 Zrotation Yrotation Xrotation
			JOINT lankle
			{
				OFFSET -0.014790 -0.426874 -0.037428
				CHANNELS 3 Zrotation Yrotation Xrotation
				JOINT ltoe
				{
					OFFSET 0.041054 -0.060286 0.122042
					CHANNELS 3 Zrotation Yrotation Xrotation
					End Site
					{
						OFFSET 0.000000 0.000000 0.000000
					}
				}
			}
		}
	}
	JOINT rhip
	{
		OFFSET -0.060310 -0.090513 -0.013543
		CHANNELS 3 Zrotation Yrotation Xrotation
		JOINT rknee
		{
			OFFSET -0.043257 -0.383688 -0.004843
			CHANNELS 3 Zrotation Yrotation Xrotation
			JOINT rankle
			{
				OFFSET 0.019056 -0.420046 -0.034562
				CHANNELS 3 Zrotation Yrotation Xrotation
				JOINT rtoe
				{
					OFFSET -0.034840 -0.062106 0.130323
					CHANNELS 3 Zrotation Yrotation Xrotation
					End Site
					{
						OFFSET 0.000000 0.000000 0.000000
					}
				}
			}
		}
	}
	JOINT lowerback
	{
		OFFSET 0.004439 0.124404 -0.038385
		CHANNELS 3 Zrotation Yrotation Xrotation
		JOINT upperback
		{
			OFFSET 0.004488 0.137956 0.026820
			CHANNELS 3 Zrotation Yrotation Xrotation
			JOINT chest
			{
				OFFSET -0.002265 0.056032 0.002855
				CHANNELS 3 Zrotation Yrotation Xrotation
				JOINT lowerneck
				{
					OFFSET -0.013390 0.211636 -0.033468
					CHANNELS 3 Zrotation Yrotation Xrotation
					JOINT upperneck
					{
						OFFSET 0.010113 0.088937 0.050410
						CHANNELS 3 Zrotation Yrotation Xrotation
						End Site
						{
							OFFSET 0.000000 0.000000 0.000000
						}
					}
				}
				JOINT lclavicle
				{
					OFFSET 0.071702 0.114000 -0.018898
					CHANNELS 3 Zrotation Yrotation Xrotation
					JOINT lshoulder
					{
						OFFSET 0.122921 0.045205 -0.019046
						CHANNELS 3 Zrotation Yrotation Xrotation
						JOINT lelbow
						{
							OFFSET 0.255332 -0.015649 -0.022946
							CHANNELS 3 Zrotation Yrotation Xrotation
							JOINT lwrist
							{
								OFFSET 0.265709 0.012698 -0.007375
								CHANNELS 3 Zrotation Yrotation Xrotation
								End Site
								{
									OFFSET 0.000000 0.000000 0.000000
								}
							}
						}
					}
				}
				JOINT rclavicle
				{
					OFFSET -0.082954 0.112472 -0.023707
					CHANNELS 3 Zrotation Yrotation Xrotation
					JOINT rshoulder
					{
						OFFSET -0.113228 0.046853 -0.008472
						CHANNELS 3 Zrotation Yrotation Xrotation
						JOINT relbow
						{
							OFFSET -0.260127 -0.014369 -0.031269
							CHANNELS 3 Zrotation Yrotation Xrotation
							JOINT rwrist
							{
								OFFSET -0.269108 0.006794 -0.006027
								CHANNELS 3 Zrotation Yrotation Xrotation
								End Site
								{
									OFFSET 0.000000 0.000000 0.000000
								}
							}
						}
					}
				}
			}
		}
	}
}
MOTION
Frames: 11
Frame Time: 0.033333
-1.248097 0.776173 0.998096 89.638694 -0.440276 83.458102 -1.289283 1.309211 8.129357 -1.739120 -8.307112 3.238721 2.919721 8.050662 -10.638949 0.000000 -0.000000 0.000000 3.276215 -1.709163 2.452230 1.123320 -0.473466 13.912341 1.197044 -5.150704 -12.997165 0.000000 -0.000000 0.000000 -0.352976 -0.189099 9.674052 2.032904 -2.154625 1.412787 0.173374 -0.502628 0.948495 1.368433 -10.861781 -3.198845 -2.390868 -17.156578 7.075574 -28.331175 -0.436192 2.664233 -58.633425 -7.804422 12.299068 7.023811 -27.934986 9.885993 -4.964441 -3.829014 -3.058320 29.009488 6.023335 3.044498 57.843787 5.657361 12.165999 -13.138752 19.372324 -6.964133 5.211727 2.661476 -6.410466 
-1.247092 0.774800 0.997806 90.055264 -0.506896 83.526260 -1.261167 1.243316 8.058863 -1.732068 -8.532672 3.298968 2.924888 7.946108 -10.680612 0.000000 -0.000000 0.000000 3.288207 -1.660961 2.494511 1.182449 -0.664895 13.881263 1.315702 -5.480553 -13.104452 0.000000 -0.000000 0.000000 -0.367859 -0.273259 9.711984 1.972470 -2.093654 1.169255 0.149996 -0.547620 0.794210 1.357455 -9.734752 -2.740778 -2.611704 -15.932537 8.057893 -28.174087 -0.383934 2.922786 -58.552558 -7.829151 12.310607 7.164844 -28.076751 9.855429 -4.964229 -3.385151 -3.086851 29.170977 6.019545 3.417927 58.101999 5.368674 12.232012 -13.209766 18.488405 -7.267971 5.319406 2.472977 -6.659131 
-1.245917 0.773440 0.997488 90.382282 -0.511351 83.535528 -1.226208 1.160165 8.067536 -1.649791 -8.774494 3.375424 2.975742 7.945065 -10.821450 0.000000 -0.000000 0.000000 3.332422 -1.817420 2.566170 1.259528 -0.733693 13.919294 1.252225 -5.602724 -13.200591 0.000000 -0.000000 0.000000 -0.350372 -0.253726 9.651128 2.000367 -2.034885 1.040245 0.231760 -0.588787 0.715752 1.191561 -8.100952 -1.899653 -2.772692 -14.266588 9.238686 -28.221320 -0.382232 3.083391 -58.493189 -7.867888 12.242347 7.188257 -27.824769 9.879311 -5.256088 -3.433999 -3.100671 29.361966 5.801333 3.802659 58.011239 5.291727 12.222066 -12.997431 17.821507 -7.408778 5.507473 2.422651 -6.986804 
-1.244257 0.771372 0.996438 90.580909 -0.621580 83.667626 -1.027353 1.034508 8.054883 -1.949063 -8.919776 3.203576 2.949492 7.990361 -10.737594 0.000000 -0.000000 0.000000 3.345122 -1.644318 2.478581 1.351798 -0.797993 13.992787 1.130069 -5.976266 -13.493374 0.000000 -0.000000 0.000000 -0.371227 -0.347838 9.199969 2.068708 -1.972018 1.158492 0.240651 -0.605758 0.944377 1.003650 -5.649057 -0.845865 -2.910605 -11.665142 10.891970 -28.233696 -0.197834 3.107866 -58.499735 -8.147352 11.985469 7.521859 -27.117242 9.322282 -5.318413 -3.474419 -3.921603 29.539095 5.276192 3.994375 57.599300 5.624397 12.644900 -12.426384 17.266030 -6.523820 5.791272 2.325899 -7.155423 
-1.243558 0.769918 0.995953 90.398926 -0.729023 83.841244 -1.014301 1.139307 7.858940 -2.009974 -8.919510 3.307903 3.075220 8.055337 -10.874222 0.000000 -0.000000 0.000000 3.266917 -1.755801 2.122351 1.440158 -0.638150 14.347281 1.192930 -5.784894 -13.710308 0.000000 -0.000000 0.000000 -0.332774 -0.368639 9.363658 1.987346 -1.744986 0.591974 0.181832 -0.470836 0.864417 1.109563 -4.300006 0.024033 -2.983246 -10.215983 11.873697 -28.265663 0.285050 3.059172 -58.341999 -7.996972 11.885027 7.314966 -27.148792 9.523829 -5.230934 -3.466840 -3.754766 29.723821 4.711221 4.281531 57.651801 5.432456 12.810129 -12.522810 17.403913 -6.408627 5.580814 2.483497 -6.742363 
-1.241548 0.767646 0.995421 90.285463 -0.884346 83.699228 -1.026187 1.179399 8.080212 -2.065535 -8.906199 3.536697 3.201332 8.158945 -11.243240 0.000000 -0.000000 0.000000 3.298423 -1.706891 2.222322 1.328515 -0.699691 14.754748 1.156172 -5.672866 -14.162475 0.000000 -0.000000 0.000000 -0.512036 -0.253075 9.313912 1.990467 -1.582975 0.658098 0.227890 -0.371033 0.947837 1.321002 -2.388257 1.154148 -2.923676 -8.287606 13.010510 -28.228367 0.631490 3.059583 -58.283479 -7.971857 11.773683 7.311001 -27.230862 9.465307 -5.299452 -3.478725 -3.280099 30.023808 4.252506 4.561297 57.432649 5.412636 12.706269 -12.802956 17.428149 -6.978911 5.704638 2.721418 -6.920977 
-1.240041 0.765235 0.994788 90.346145 -0.963231 83.714713 -1.009276 0.909704 7.533675 -2.208684 -8.847647 4.702191 3.383394 8.331481 -11.680598 0.000000 -0.000000 0.000000 3.371130 -1.713119 2.232225 1.402843 -0.540966 14.901821 1.022809 -5.812577 -14.225884 0.000000 -0.000000 0.000000 -0.410179 -0.185220 9.321371 1.921765 -1.496596 0.507978 0.160623 -0.434044 1.235212 1.328571 -0.923494 1.740593 -2.937191 -6.556985 13.941960 -28.292196 0.942215 3.047983 -58.078904 -7.927898 11.570798 7.240673 -27.293821 9.537895 -5.211137 -3.739028 -3.517257 30.094702 3.736491 4.587337 57.519972 5.566672 13.096647 -12.762592 17.597691 -6.256165 5.349804 2.635261 -6.654861 
-1.238431 0.762967 0.994379 90.219112 -1.039393 83.407265 -1.125047 0.687465 7.166199 -2.212209 -8.720929 6.310291 3.347843 8.658993 -12.378181 0.000000 -0.000000 0.000000 3.331754 -1.735088 2.649267 1.598227 -0.537207 14.969842 1.037829 -5.678565 -14.573482 0.000000 -0.000000 0.000000 -0.245039 0.004312 9.510869 1.844337 -1.418488 0.726109 0.078264 -0.305896 1.571014 1.472156 0.091478 2.353984 -2.925545 -5.474013 14.436288 -28.450608 1.043364 2.814124 -57.866814 -7.861341 11.456825 7.510012 -27.286122 9.373587 -5.308559 -3.619593 -2.960867 30.189284 3.521066 4.553248 57.388174 5.581699 13.118515 -12.844745 18.116918 -6.373398 5.601204 2.720263 -6.552585 
-1.235878 0.759790 0.994047 90.013434 -1.203907 83.130391 -1.333203 0.392918 6.452696 -2.324365 -8.592329 8.602313 3.445186 9.142475 -13.045785 0.000000 -0.000000 0.000000 3.351505 -1.718083 3.211475 1.638857 -0.291158 14.890470 0.913263 -5.628007 -14.773096 0.000000 -0.000000 0.000000 -0.288650 0.201174 9.616681 1.766218 -1.383705 0.790299 0.062400 -0.171616 1.843497 1.546114 0.746102 3.017916 -2.966650 -4.516835 14.914049 -28.299327 1.272766 2.861049 -57.930977 -7.698341 11.317807 7.609018 -27.376438 9.138724 -4.854813 -3.680908 -3.456454 30.083483 3.531493 4.791770 57.349070 5.822629 13.093364 -12.584829 17.780898 -6.301922 5.417018 3.037690 -7.058564 
-1.233567 0.756140 0.993348 89.861913 -1.200253 82.877946 -1.517478 -0.434167 4.458246 -2.485943 -8.180032 13.433515 3.551246 9.673564 -13.930792 0.000000 -0.000000 0.000000 3.559159 -1.955165 3.616215 1.711900 0.220168 15.045405 0.714327 -5.380136 -15.082825 0.000000 -0.000000 0.000000 0.044185 0.602326 10.203402 1.683336 -1.346428 0.714662 -0.019724 -0.215394 2.163946 1.466812 1.406673 3.281096 -2.956223 -3.367110 15.385863 -28.429920 1.607221 2.704042 -57.823631 -7.405931 11.118662 7.788814 -27.688644 9.068891 -4.808055 -3.212935 -3.510598 30.000266 3.222975 4.565648 57.219516 5.957556 13.219856 -12.492771 18.347217 -5.884441 5.500061 2.813447 -6.606770 
-1.231890 0.753175 0.992626 90.036311 -1.122777 82.527817 -1.579753 -1.221291 2.127518 -2.682321 -7.858442 18.746764 2.934472 9.578526 -13.893487 0.000000 -0.000000 0.000000 3.841076 -2.296665 4.074368 1.715555 0.576325 15.065172 0.257075 -5.466518 -15.331604 0.000000 -0.000000 0.000000 0.505605 0.941658 10.762563 1.606330 -1.532518 0.760517 -0.197340 -0.204607 2.594565 1.286642 1.763553 3.145385 -2.946769 -2.848094 15.736634 -28.495476 1.488929 2.523583 -57.641823 -7.376713 11.001813 7.574195 -27.533441 8.813405 -4.721223 -3.128115 -3.970288 30.022526 3.404181 4.449436 57.096810 6.212202 13.204437 -12.407929 18.414678 -6.114732 5.163966 3.029176 -6.931606 
